<svg xmlns="http://www.w3.org/2000/svg" viewBox="0 0 64 64">
  <defs>
    <linearGradient id="bg" x1="0%" y1="0%" x2="100%" y2="100%">
      <stop offset="0%" stop-color="#18322d" />
      <stop offset="100%" stop-color="#c7823b" />
    </linearGradient>
  </defs>
  <rect width="64" height="64" rx="16" fill="url(#bg)" />
  <path d="M16 46 26 18h5l10 28h-5.4l-2.2-6.4H23.5L21.3 46Zm8.9-11h6.9l-3.4-10.2Z" fill="#f8f4ea" />
  <path d="M42 18h8.8c5.2 0 8.2 2.8 8.2 7.2 0 3.1-1.6 5.3-4.4 6.3 3.5.9 5.4 3.4 5.4 7 0 4.7-3.2 7.5-8.7 7.5H42Zm5.1 11.4h3.2c2.2 0 3.6-1.1 3.6-3 0-1.8-1.3-2.9-3.6-2.9h-3.2Zm0 12h3.8c2.5 0 4-1.1 4-3.2 0-2-1.5-3.2-4-3.2h-3.8Z" fill="#f8f4ea" />
</svg>
